<svg width="100" height="56" viewBox="0 0 100 56" version="1.1" xmlns="http://www.w3.org/2000/svg" xmlns:xlink="http://www.w3.org/1999/xlink"><defs><path id="path-1" d="M0 .395h26.775V32H0z"/></defs><g id="Welcome" stroke="none" stroke-width="1" fill="none" fill-rule="evenodd"><g id="Raven-Landing-Page-" transform="translate(-125 -740)"><g id="Panel-1" transform="translate(-28 -11)"><g transform="translate(153 751)" id="mac-windows-linux-compatible"><g id="logos"><g id="linux" transform="translate(73)"><path d="M13.923 10.225c-.523.35-1.136.775-1.788.775-.65 0-1.165-.386-1.535-.762-.185-.187-.335-.375-.448-.51-.197-.2-.173-.478-.092-.47.135.022.156.25.24.353.116.138.26.317.435.495.35.355.816.7 1.4.7s1.265-.438 1.68-.736c.235-.17.535-.473.78-.703.186-.176.18-.388.334-.365.154.023.04.234-.176.476a5.034 5.034 0 01-.83.747" id="Fill-1" fill="#FFF"/><g id="Group-5"><mask id="mask-2" fill="#fff"><use xlink:href="#path-1"/></mask><path d="M26.343 27.128c-.018.311-.249.542-.675.792-.853.502-2.364.938-3.328 2.078-.838.972-1.86 1.506-2.76 1.575-.899.07-1.675-.295-2.133-1.19v-.002l-.002-.002c-.284-.527-.166-1.358.074-2.235.239-.876.582-1.777.629-2.508v-.002c.048-.938.102-1.756.263-2.388.162-.632.416-1.06.867-1.3l.062-.032c.052.812.464 1.64 1.192 1.82.797.204 1.946-.463 2.431-1.007.097-.004.192-.009.284-.011.426-.01.782.015 1.147.325l.001.001h.002c.28.233.413.67.529 1.16.115.49.207 1.025.554 1.405l.001.002c.667.72.88 1.207.862 1.519zm-16.303.702a10.34 10.34 0 00-.54-.743 37.63 37.63 0 00-.373-.464c.246 0 .455-.04.624-.114a.778.778 0 00.43-.433c.146-.383 0-.923-.467-1.54-.468-.617-1.26-1.313-2.422-2.008-.855-.52-1.333-1.155-1.556-1.844-.224-.69-.193-1.437-.02-2.173.33-1.414 1.18-2.788 1.723-3.652.146-.104.053.195-.549 1.284-.539.996-1.546 3.293-.167 5.086.037-1.276.35-2.577.875-3.795.763-1.69 2.362-4.62 2.49-6.955.065.047.29.195.39.25v.001c.294.169.514.415.799.638.286.224.643.417 1.183.448.052.003.102.005.152.005.556 0 .99-.177 1.35-.38.393-.218.707-.46 1.004-.554h.002c.628-.192 1.127-.531 1.411-.926.488 1.876 1.623 4.585 2.353 5.908.388.702 1.16 2.192 1.493 3.988.21-.006.443.024.692.086.872-2.204-.739-4.576-1.475-5.238-.298-.281-.312-.407-.164-.401.799.69 1.847 2.075 2.23 3.64.174.712.21 1.463.024 2.203.091.037.184.077.278.12 1.399.665 1.916 1.242 1.668 2.03a4.371 4.371 0 00-.242 0h-.022c.203-.624-.246-1.085-1.442-1.613-1.24-.532-2.229-.48-2.395.6-.011.056-.02.114-.026.173a1.894 1.894 0 00-.28.12c-.582.311-.9.875-1.077 1.568-.176.69-.227 1.526-.276 2.465-.03.473-.23 1.112-.431 1.788-2.032 1.413-4.852 2.026-7.247.432zm.104 1.596v.005c-.077.985-.647 1.522-1.522 1.716-.874.195-2.06.001-3.244-.602h-.002c-1.31-.678-2.868-.61-3.868-.814-.5-.102-.827-.255-.977-.54-.15-.284-.152-.78.166-1.627l.001-.004.002-.003c.157-.474.04-.992-.036-1.478S.55 25.15.72 24.842l.002-.002c.218-.41.538-.557.934-.695.397-.14.868-.249 1.24-.612l.001-.002.003-.001c.343-.354.601-.797.903-1.11.255-.266.51-.442.894-.445h.013c.068 0 .139.006.214.018.51.075.955.422 1.383.99l1.237 2.197v.002h.002c.329.67 1.024 1.408 1.613 2.16.589.752 1.045 1.506.985 2.084zm-.212-20.6c.302-.22.512-.371.652-.47.14-.1.197-.138.241-.179v-.001c.228-.21.59-.592 1.136-.775.188-.063.398-.104.632-.105.449-.001.987.142 1.64.55.401.255.713.276 1.43.577h.002c.346.138.549.319.649.509.098.19.1.395.018.612-.166.432-.696.888-1.438 1.114h-.001v.001c-.364.115-.68.368-1.052.576-.372.208-.794.375-1.367.343a1.809 1.809 0 01-.606-.13 1.882 1.882 0 01-.437-.265c-.264-.207-.494-.467-.83-.66H10.6c-.543-.3-.839-.645-.931-.945-.093-.3-.006-.555.263-.752zm-.15-2.824c.092-.285.213-.491.388-.661.176-.17.353-.255.565-.266l.05-.001c.193 0 .365.063.544.202.193.15.339.343.461.614.123.272.189.544.206.864v.003c.01.134.008.261-.003.383l-.112.035c-.207.07-.372.147-.532.25a1.36 1.36 0 00.006-.339l-.001-.018a1.445 1.445 0 00-.11-.435.842.842 0 00-.225-.32.37.37 0 00-.275-.1.364.364 0 00-.255.145.833.833 0 00-.163.353 1.4 1.4 0 00-.03.464l.001.019c.017.163.05.298.11.435a.827.827 0 00.27.354c-.095.073-.16.123-.238.18l-.18.128a1.598 1.598 0 01-.373-.542 2.382 2.382 0 01-.207-.863v-.003c-.018-.32.014-.596.104-.881zm3.377.798c-.004-.37.058-.688.205-1.011.146-.323.327-.556.581-.745a1.32 1.32 0 01.803-.278h.014c.29 0 .538.084.793.264.259.183.445.412.596.733.147.313.218.618.225.98a2.327 2.327 0 01-.205 1.039 1.94 1.94 0 01-.29.473 10.442 10.442 0 00-.506-.203c-.114-.043-.203-.071-.295-.102.067-.079.198-.172.247-.287.074-.175.11-.346.117-.55l.002-.025a1.497 1.497 0 00-.08-.533.982.982 0 00-.252-.415.523.523 0 00-.361-.16h-.019a.538.538 0 00-.351.135.984.984 0 00-.283.396c-.074.174-.11.347-.117.552l-.001.023c-.003.113.005.216.022.316a4.164 4.164 0 00-.822-.272 2.675 2.675 0 01-.023-.301V6.8zm12.643 18.53l-.001-.002c-.229-.253-.339-.72-.456-1.219-.117-.498-.248-1.035-.667-1.383l-.003-.003a1.719 1.719 0 00-.515-.302c.583-1.686.355-3.365-.234-4.882-.722-1.862-1.983-3.484-2.946-4.594-1.078-1.326-2.132-2.585-2.111-4.443.032-2.838.32-8.1-4.8-8.107a8.2 8.2 0 00-.652.026c-5.722.45-4.204 6.344-4.29 8.318-.104 1.444-.404 2.581-1.422 3.992-1.196 1.387-2.88 3.632-3.678 5.969-.376 1.103-.555 2.226-.39 3.29a2.86 2.86 0 00-.148.142c-.351.366-.611.809-.9 1.107-.27.263-.655.363-1.078.51-.423.149-.887.367-1.17.894l-.001.004a1.557 1.557 0 00-.176.765c0 .245.037.492.075.73.077.497.156.965.052 1.283-.335.893-.378 1.51-.143 1.958.237.449.722.647 1.272.759 1.097.223 2.584.167 3.756.774l.1-.186-.099.186c1.254.64 2.526.866 3.54.64.736-.163 1.333-.59 1.64-1.248.794-.004 1.664-.332 3.06-.406.946-.075 2.128.328 3.488.254.035.144.087.282.157.414l.003.003c.527 1.028 1.506 1.498 2.55 1.418 1.045-.08 2.156-.681 3.054-1.723l-.164-.135.166.133c.856-1.012 2.277-1.432 3.22-1.986.47-.277.852-.624.882-1.128.03-.504-.274-1.068-.971-1.823z" id="Fill-3" fill="#FFF" mask="url(#mask-2)"/></g><path d="M13.003 7.37c.04.19.251.159.374.249.106.08.192.254.313.259.115.005.294-.057.309-.222.02-.217-.2-.354-.342-.433-.182-.103-.415-.155-.586-.018-.04.03-.082.104-.068.166" id="Fill-6" fill="#FFF"/><path d="M11.998 7.37c-.041.19-.252.159-.374.249-.107.08-.193.254-.314.259-.115.005-.294-.057-.309-.222-.02-.217.2-.354.342-.433.182-.103.415-.155.586-.018.04.03.082.104.069.166" id="Fill-8" fill="#FFF"/></g><g id="windows" transform="translate(35 1)" fill="#FFF"><path d="M28.774 0L13.18 2.276v11.533l15.594-.124V0zM0 4.087l.01 9.81 11.756-.068-.006-11.344L0 4.087zm.009 20.787l11.755 1.616-.01-11.354L.01 15.06v9.814zm13.171 1.792l15.594 2.2.004-13.623-15.62-.025.023 11.448z" id="Windows"/></g><path d="M17.928.577c0 1.441-.518 2.787-1.552 4.033-1.247 1.48-2.756 2.337-4.392 2.201a4.556 4.556 0 01-.033-.546c0-1.384.593-2.864 1.646-4.075.526-.613 1.195-1.123 2.006-1.53.81-.4 1.575-.622 2.295-.66.021.193.03.385.03.577zm5.476 21.885a15.753 15.753 0 01-1.525 2.786c-.803 1.162-1.46 1.966-1.966 2.412-.785.734-1.626 1.109-2.526 1.13-.647 0-1.426-.187-2.334-.566-.91-.377-1.747-.564-2.512-.564-.802 0-1.663.187-2.583.564-.922.38-1.665.577-2.232.597-.864.037-1.724-.35-2.583-1.16-.549-.486-1.235-1.319-2.056-2.499-.882-1.26-1.606-2.72-2.174-4.385C.305 18.978 0 17.237 0 15.55c0-1.931.411-3.597 1.234-4.993A7.299 7.299 0 013.82 7.9a6.874 6.874 0 013.494-1c.685 0 1.585.215 2.702.639 1.115.424 1.83.64 2.144.64.235 0 1.03-.252 2.378-.754 1.274-.466 2.35-.659 3.23-.583 2.388.196 4.182 1.152 5.375 2.874-2.135 1.314-3.191 3.155-3.17 5.516.019 1.839.676 3.37 1.967 4.584.585.564 1.238 1 1.965 1.31a22.05 22.05 0 01-.5 1.336z" transform="translate(0 1)" id="mac" fill="#FFF"/></g><path d="M23.15 53.18a4.262 4.262 0 01-1.596-.288 3.395 3.395 0 01-1.236-.84 3.787 3.787 0 01-.798-1.362c-.188-.54-.282-1.158-.282-1.854 0-.696.106-1.314.318-1.854a4.02 4.02 0 01.858-1.362c.36-.368.78-.648 1.26-.84.48-.192.992-.288 1.536-.288a5.457 5.457 0 011.65.24c.204.064.37.128.498.192s.216.112.264.144l-.336.96a1.861 1.861 0 00-.312-.156 6.533 6.533 0 00-.462-.168 4.157 4.157 0 00-.564-.138 3.55 3.55 0 00-.618-.054c-.44 0-.836.076-1.188.228a2.458 2.458 0 00-.9.66 2.98 2.98 0 00-.57 1.05 4.53 4.53 0 00-.198 1.386c0 .496.058.948.174 1.356.116.408.29.758.522 1.05.232.292.522.518.87.678.348.16.754.24 1.218.24.536 0 .98-.056 1.332-.168a5.86 5.86 0 00.792-.3l.3.96c-.056.04-.156.09-.3.15s-.324.118-.54.174a6.74 6.74 0 01-1.692.204zm9.12-3.3c0 .496-.072.944-.216 1.344-.144.4-.346.744-.606 1.032-.26.288-.57.51-.93.666-.36.156-.752.234-1.176.234-.424 0-.816-.078-1.176-.234a2.666 2.666 0 01-.93-.666 3.074 3.074 0 01-.606-1.032 3.947 3.947 0 01-.216-1.344c0-.488.072-.934.216-1.338.144-.404.346-.75.606-1.038.26-.288.57-.51.93-.666.36-.156.752-.234 1.176-.234.424 0 .816.078 1.176.234.36.156.67.378.93.666.26.288.462.634.606 1.038.144.404.216.85.216 1.338zm-1.164 0c0-.704-.158-1.262-.474-1.674-.316-.412-.746-.618-1.29-.618s-.974.206-1.29.618c-.316.412-.474.97-.474 1.674s.158 1.262.474 1.674c.316.412.746.618 1.29.618s.974-.206 1.29-.618c.316-.412.474-.97.474-1.674zm2.736-2.94c.256-.064.594-.132 1.014-.204.42-.072.906-.108 1.458-.108.4 0 .736.054 1.008.162.272.108.5.266.684.474.056-.04.144-.096.264-.168.12-.072.268-.142.444-.21s.372-.128.588-.18c.216-.052.448-.078.696-.078.48 0 .872.07 1.176.21.304.14.542.338.714.594.172.256.288.56.348.912s.09.736.09 1.152V53H41.21v-3.264c0-.368-.018-.684-.054-.948a1.833 1.833 0 00-.204-.66.935.935 0 00-.408-.39c-.172-.084-.394-.126-.666-.126-.376 0-.686.05-.93.15-.244.1-.41.19-.498.27.064.208.112.436.144.684.032.248.048.508.048.78V53h-1.116v-3.264c0-.368-.02-.684-.06-.948a1.913 1.913 0 00-.21-.66.935.935 0 00-.408-.39 1.489 1.489 0 00-.654-.126 5.79 5.79 0 00-.36.012c-.128.008-.25.018-.366.03a5.2 5.2 0 00-.51.078V53h-1.116v-6.06zm14.664 2.952c0-.728-.18-1.288-.54-1.68-.36-.392-.84-.588-1.44-.588-.336 0-.598.012-.786.036a3.16 3.16 0 00-.45.084v3.936c.136.112.332.22.588.324.256.104.536.156.84.156.32 0 .594-.058.822-.174a1.51 1.51 0 00.558-.48c.144-.204.248-.444.312-.72.064-.276.096-.574.096-.894zm1.164 0c0 .472-.062.908-.186 1.308a2.96 2.96 0 01-.546 1.032c-.24.288-.534.512-.882.672-.348.16-.746.24-1.194.24a2.9 2.9 0 01-.954-.144 3.012 3.012 0 01-.618-.276v2.496h-1.116v-8.268c.264-.064.594-.134.99-.21a7.355 7.355 0 011.374-.114c.48 0 .912.076 1.296.228.384.152.712.368.984.648s.482.622.63 1.026c.148.404.222.858.222 1.362zm3.684 2.304c.264 0 .498-.006.702-.018.204-.012.374-.034.51-.066v-1.86a1.43 1.43 0 00-.39-.102 4.338 4.338 0 00-.654-.042c-.168 0-.346.012-.534.036-.188.024-.36.074-.516.15-.156.076-.286.18-.39.312-.104.132-.156.306-.156.522 0 .4.128.678.384.834.256.156.604.234 1.044.234zm-.096-5.592c.448 0 .826.058 1.134.174.308.116.556.28.744.492.188.212.322.464.402.756.08.292.12.614.12.966v3.9l-.402.066c-.172.028-.366.054-.582.078-.216.024-.45.046-.702.066-.252.02-.502.03-.75.03a4.11 4.11 0 01-.972-.108 2.174 2.174 0 01-.768-.342 1.566 1.566 0 01-.504-.618c-.12-.256-.18-.564-.18-.924 0-.344.07-.64.21-.888.14-.248.33-.448.57-.6.24-.152.52-.264.84-.336a4.58 4.58 0 011.008-.108 4.145 4.145 0 01.69.066 20.435 20.435 0 01.45.09v-.312c0-.184-.02-.366-.06-.546-.04-.18-.112-.34-.216-.48a1.094 1.094 0 00-.426-.336c-.18-.084-.414-.126-.702-.126-.368 0-.69.026-.966.078a3.378 3.378 0 00-.618.162l-.132-.924c.144-.064.384-.126.72-.186.336-.06.7-.09 1.092-.09zm5.292.156h2.364v.936H58.55v2.88c0 .312.024.57.072.774.048.204.12.364.216.48a.777.777 0 00.36.246c.144.048.312.072.504.072.336 0 .606-.038.81-.114.204-.076.346-.13.426-.162l.216.924a4.143 4.143 0 01-.588.21c-.28.084-.6.126-.96.126-.424 0-.774-.054-1.05-.162a1.53 1.53 0 01-.666-.486 1.946 1.946 0 01-.354-.798 5.26 5.26 0 01-.102-1.098V45.02l1.116-.192v1.932zM63.446 53H62.33v-6.24h1.116V53zm-.564-7.368c-.2 0-.37-.066-.51-.198s-.21-.31-.21-.534c0-.224.07-.402.21-.534a.716.716 0 01.51-.198c.2 0 .37.066.51.198s.21.31.21.534c0 .224-.07.402-.21.534a.716.716 0 01-.51.198zm3.6 1.404c.136-.088.342-.18.618-.276a2.9 2.9 0 01.954-.144c.448 0 .846.08 1.194.24.348.16.642.384.882.672.24.288.422.632.546 1.032.124.4.186.84.186 1.32 0 .504-.074.958-.222 1.362a2.863 2.863 0 01-.63 1.026c-.272.28-.6.496-.984.648a3.496 3.496 0 01-1.296.228c-.52 0-.98-.036-1.38-.108-.4-.072-.728-.144-.984-.216v-8.94l1.116-.192v3.348zm0 4.992c.112.032.27.062.474.09.204.028.458.042.762.042.6 0 1.08-.198 1.44-.594.36-.396.54-.958.54-1.686 0-.32-.032-.62-.096-.9a2.028 2.028 0 00-.312-.726 1.51 1.51 0 00-.558-.48 1.794 1.794 0 00-.822-.174c-.304 0-.584.052-.84.156a2.297 2.297 0 00-.588.324v3.948zm7.824 1.092c-.688-.016-1.176-.164-1.464-.444-.288-.28-.432-.716-.432-1.308V43.88l1.116-.192v7.5c0 .184.016.336.048.456s.084.216.156.288a.671.671 0 00.288.162c.12.036.268.066.444.09l-.156.936zm1.056-3.228c0-.552.08-1.034.24-1.446.16-.412.372-.754.636-1.026s.568-.476.912-.612a2.849 2.849 0 011.056-.204c.84 0 1.484.262 1.932.786.448.524.672 1.322.672 2.394v.186a1.7 1.7 0 01-.012.21h-4.272c.048.648.236 1.14.564 1.476.328.336.84.504 1.536.504.392 0 .722-.034.99-.102.268-.068.47-.134.606-.198l.156.936c-.136.072-.374.148-.714.228-.34.08-.726.12-1.158.12-.544 0-1.014-.082-1.41-.246a2.63 2.63 0 01-.978-.678 2.766 2.766 0 01-.57-1.026 4.34 4.34 0 01-.186-1.302zm4.284-.612c.008-.504-.118-.918-.378-1.242-.26-.324-.618-.486-1.074-.486-.256 0-.482.05-.678.15-.196.1-.362.23-.498.39s-.242.344-.318.552c-.076.208-.126.42-.15.636h3.096z" id="Compatible" fill="#FFF" fill-rule="nonzero"/></g></g></g></g></svg>